# xmcd
#
# Track frame offsets:
#	150
#	59319
#	77047
#	115411
#	150115
#	155894
#
# Disc length: 2462 seconds
#
# Revision: 0
# Processed by: cddbd v1.5.2PL0 Copyright (c) Steve Scherf et al.
# Submitted via: audiograbber 1.83.01
#
DISCID=41099c06
DTITLE=Grateful Dead - 93-09-29 Boston Garden, Boston MA
DYEAR=1900
DGENRE=
TTITLE0=Space
TTITLE1=Playing In The Band Reprise
TTITLE2=Stella Blue
TTITLE3=Sugar Magnolia
TTITLE4=Crowd and Tuning
TTITLE5=Liberty
EXTD=
EXTT0=
EXTT1=
EXTT2=
EXTT3=
EXTT4=
EXTT5=
PLAYORDER=
